<?xml version="1.0" encoding="utf-8"?>
<!-- Generator: Adobe Illustrator 23.0.3, SVG Export Plug-In . SVG Version: 6.00 Build 0)  -->
<svg version="1.1" id="Layer_1" xmlns="http://www.w3.org/2000/svg" xmlns:xlink="http://www.w3.org/1999/xlink" x="0px" y="0px"
	 viewBox="0 0 800 800" style="enable-background:new 0 0 800 800;" xml:space="preserve">
<style type="text/css">
	.st0{fill:#314049;}
</style>
<g>
	<path class="st0" d="M576.2,139.7c52.7,0,69.6,11.3,77.8,19.8C671,177.4,680,217.7,680,276.2c0,46.5-7,84.9-20.8,114.2
		c-11.4,24.1-27.7,42.8-50,57.1C566,475.1,499.5,488,400,488c-99.8,0-166.3-12.8-209.3-40.2c-22.2-14.2-38.5-32.7-49.8-56.7
		c-13.8-29.2-20.8-67.5-20.8-114c0-76.1,12.9-106.3,23.7-118.3c7.2-8,23-18.7,76.7-18.7c32.1,0,71.2,3.9,105.2,7.7
		c24.4,2.7,49.3,4.1,73.9,4.1c26.8,0,54-1.6,80.7-4.9C508.7,143.7,545.4,139.7,576.2,139.7 M576.2,72.7c-31,0-65.8,3.3-104,7.9
		C448,83.5,423.8,85,399.5,85c-22.2,0-44.4-1.2-66.5-3.7c-42.6-4.7-80.1-8.1-112.6-8.1C106.4,73.2,53,114,53,277.2
		C53,512.3,208.4,555,400,555s347-43.7,347-278.8C747,112.9,684.8,72.7,576.2,72.7L576.2,72.7z"/>
</g>
<g>
	<path class="st0" d="M683,591c0,156.3-130.7,163-287,163s-279-6.7-279-163c0-45.9,24.6-106.9,59.2-141.7
		c123-123.7,324.5-124.7,447.5-1C658.4,483.1,683,545.1,683,591z"/>
</g>
</svg>
