<?xml version="1.0" encoding="utf-8"?>
<!-- Generator: Adobe Illustrator 23.0.3, SVG Export Plug-In . SVG Version: 6.00 Build 0)  -->
<svg version="1.1" xmlns="http://www.w3.org/2000/svg" xmlns:xlink="http://www.w3.org/1999/xlink" x="0px" y="0px"
	 viewBox="0 0 1920 1080" style="enable-background:new 0 0 1920 1080;" xml:space="preserve">
<style type="text/css">
	.st0{fill:none;stroke:#314049;stroke-width:9;stroke-miterlimit:10;}
	.st1{fill:none;stroke:#314049;stroke-width:9;stroke-linecap:round;stroke-miterlimit:10;}
	.st2{display:none;}
	.st3{display:inline;}
	.st4{fill:#314049;}
	.st5{display:inline;fill:#314049;}
</style>
<g id="trx">
	<g>
		<path class="st0" d="M177.9,583.1c-2.4,13.7-19.3,22.2-37.8,19c-18.5-3.2-31.6-16.9-29.2-30.6c0.9-5.2,7.1-41.5,7.1-41.5
			c7.8-15,27.2-28,33.9-40.2c2.8-5.1,13.1-3.3,14.1,2.4c2.5,14.4,16.1,34.1,18.6,51.5C184.6,543.8,178.7,578.1,177.9,583.1z"/>
		<line class="st0" x1="118" y1="530" x2="184.6" y2="543.9"/>
		<path class="st0" d="M280.2,609.2c3.2,13.5-9.1,28-27.3,32.3c-18.3,4.3-35.7-3.2-38.9-16.7c-1.2-5.1-9.6-41-9.6-41
			c1.3-16.9,14-36.4,15.5-50.3c0.6-5.8,10.8-8.2,13.9-3.3c7.9,12.3,28.2,25.1,37.3,40.2C271.1,570.4,279,604.3,280.2,609.2z"/>
		<line class="st0" x1="204.3" y1="583.6" x2="271.1" y2="570.4"/>
		<line class="st0" x1="159.5" y1="487.5" x2="167.5" y2="89.5"/>
		<line class="st1" x1="225.5" y1="528.5" x2="167.5" y2="90.5"/>
	</g>
</g>
<g id="top" class="st2">
	<g class="st3">
		<ellipse class="st4" cx="33.2" cy="95.3" rx="13.7" ry="13.3"/>
		<ellipse class="st4" cx="1886.3" cy="95.3" rx="13.7" ry="13.3"/>
		<rect x="32.7" y="82" class="st4" width="1853" height="26.5"/>
	</g>
	<rect x="189" class="st5" width="9" height="82"/>
	<rect x="1664" class="st5" width="9" height="82"/>
</g>
</svg>
