
<svg  id="web" xmlns="http://www.w3.org/2000/svg" x="0px" y="0px"
	 viewBox="0 0 44 44" style="enable-background:new 0 0 44 44;" xml:space="preserve">
<style type="text/css">
	.st0{fill:none;stroke:#2C3E50;stroke-width:2;stroke-linecap:round;stroke-linejoin:round;}
	.st1{fill:#2C3E50;}
	.st2{fill:none;stroke:#2C3E50;stroke-width:2;stroke-linecap:round;stroke-miterlimit:10;}
</style>
<path class="st0" d="M14.7,7.3h14.7c4.1,0,7.3,3.3,7.3,7.3v14.7c0,4.1-3.3,7.3-7.3,7.3H14.7c-4,0-7.3-3.3-7.3-7.3V14.7
	C7.3,10.6,10.6,7.3,14.7,7.3z"/>
<path class="st1" d="M22,22.5c-3.3,0-6,2.7-6,6c0,3.3,2.7,6,6,6s6-2.7,6-6C28,25.2,25.3,22.5,22,22.5z M22.1,25.5
	c0.7,0,1.2,0.5,1.2,1.2s-0.5,1.2-1.2,1.2c-0.7,0-1.2-0.5-1.2-1.2C20.8,26,21.4,25.5,22.1,25.5z M22.1,30.9h-3c0,0,0-1.7,1.6-2.2
	l1.4,1l1.4-1c1.7,0.5,1.6,2.2,1.6,2.2H22.1z"/>
<line class="st2" x1="15.5" y1="12.5" x2="28.5" y2="12.5"/>
<line class="st2" x1="11.5" y1="17.5" x2="32.5" y2="17.5"/>
</svg>
