<?xml version="1.0" encoding="utf-8"?>
<!-- Generator: Adobe Illustrator 23.0.3, SVG Export Plug-In . SVG Version: 6.00 Build 0)  -->
<svg version="1.1" id="crew-presa-rusa" xmlns="http://www.w3.org/2000/svg" xmlns:xlink="http://www.w3.org/1999/xlink" x="0px"
	 y="0px" viewBox="0 0 250 150" style="enable-background:new 0 0 250 150;" xml:space="preserve">
<style type="text/css">
	.st0{fill:#314049;}
</style>
<path class="st0" d="M206.3,17.7c11,0,14.5,2.4,16.3,4.1c3.6,3.7,5.4,12.2,5.4,24.4c0,9.7-1.5,17.7-4.3,23.9
	c-2.4,5-5.8,8.9-10.4,11.9c-9,5.8-22.9,8.5-43.7,8.5c-20.9,0-34.7-2.7-43.7-8.4c-4.6-3-8-6.8-10.4-11.8c-2.9-6.1-4.3-14.1-4.3-23.8
	c0-15.9,2.7-22.2,5-24.7c1.5-1.7,4.8-3.9,16-3.9c6.7,0,14.9,0.8,22,1.6c5.1,0.6,10.3,0.9,15.4,0.9c5.6,0,11.3-0.3,16.9-1
	C192.2,18.5,199.9,17.7,206.3,17.7 M206.3,3.7c-6.5,0-13.7,0.7-21.7,1.7c-5.1,0.6-10.1,0.9-15.2,0.9c-4.6,0-9.3-0.3-13.9-0.8
	c-8.9-1-16.7-1.7-23.5-1.7c-23.8,0-35,8.5-35,42.6c0,49.1,32.5,58,72.5,58S242,95.3,242,46.2C242,12.1,229,3.7,206.3,3.7L206.3,3.7z
	"/>
<path class="st0" d="M228.6,111.9c0,32.7-27.3,34.1-60,34.1s-58.3-1.4-58.3-34.1c0-9.6,5.1-22.3,12.4-29.6
	c25.7-25.8,67.8-26.1,93.5-0.2C223.5,89.4,228.6,102.4,228.6,111.9z"/>
</svg>
