<?xml version="1.0" encoding="utf-8"?>
<!-- Generator: Adobe Illustrator 23.0.3, SVG Export Plug-In . SVG Version: 6.00 Build 0)  -->
<svg version="1.1" id="doc" xmlns="http://www.w3.org/2000/svg" xmlns:xlink="http://www.w3.org/1999/xlink" x="0px" y="0px"
	 viewBox="0 0 250 300" style="enable-background:new 0 0 250 300;" xml:space="preserve">
<style type="text/css">
	.st0{opacity:0.85;fill:#314049;}
</style>
<path class="st0" d="M182.6,191.8l0.4-0.5l4.3-5.8c1.5-2.1,1.1-5-1-6.5c-2.1-1.5-5-1.1-6.5,1l-2,2.8l-9.2,12.5c0,0-0.1,0.1-0.1,0.1
	c-0.1,0.1-0.1,0.2-0.2,0.2c0,0.1-0.1,0.1-0.1,0.2c0,0.1-0.1,0.1-0.1,0.2c0,0.1-0.1,0.1-0.1,0.2c0,0.1-0.1,0.1-0.1,0.2
	c0,0.1,0,0.2-0.1,0.2c0,0.1,0,0.1-0.1,0.2c0,0.1,0,0.2,0,0.2c0,0.1,0,0.1,0,0.2c0,0.1,0,0.2,0,0.2c0,0.1,0,0.1,0,0.2
	c0,0.1,0,0.2,0,0.3c0,0.1,0,0.1,0,0.2c0,0.1,0,0.2,0,0.3c0,0,0,0.1,0,0.1c0,0,0,0,0,0c0,0.1,0,0.1,0,0.2c0,0.1,0,0.2,0,0.2
	c0,0.1,0,0.1,0,0.2c0,0.1,0,0.2,0.1,0.3c0,0.1,0,0.1,0.1,0.2c0,0.1,0.1,0.2,0.1,0.2c0,0.1,0.1,0.1,0.1,0.2c0,0.1,0.1,0.1,0.1,0.2
	c0,0.1,0.1,0.1,0.1,0.2c0,0.1,0.1,0.1,0.1,0.2c0,0.1,0.1,0.1,0.1,0.2c0,0.1,0.1,0.1,0.1,0.2c0,0.1,0.1,0.1,0.1,0.2
	c0.1,0.1,0.1,0.1,0.2,0.2c0,0,0.1,0.1,0.1,0.1c0.1,0.1,0.1,0.1,0.2,0.2c0,0,0.1,0.1,0.1,0.1c0,0,0,0,0,0c0.2,0.1,0.4,0.2,0.6,0.3
	c0,0,0.1,0,0.1,0.1c0.2,0.1,0.4,0.2,0.6,0.2c0,0,0.1,0,0.1,0c0.2,0.1,0.4,0.1,0.6,0.1c0,0,0.1,0,0.1,0c0.2,0,0.4,0,0.6,0h0
	c0,0,0,0,0,0c0.2,0,0.4,0,0.6,0c0,0,0,0,0.1,0l13-1.9c-0.7-2.7-1.7-5.7-2.9-9L182.6,191.8z"/>
<path class="st0" d="M201.7,214.4C201.8,214.4,201.8,214.4,201.7,214.4c0.3,0,0.6,0,0.9,0c4.5,0.6,9.4,0.9,13.4,0.9
	c2.5,0,4.5-0.1,6-0.3c-0.3-4.1-0.8-7.1-1.3-9.1l1.2-0.3c0.6,2.4,1.1,5.7,1.4,10.5c-3.3,0.9-12.4,0.8-20.9-0.3
	c-2.5-0.3-4.9,1.5-5.2,4c-0.3,2.5,1.4,4.9,4,5.2c0.1,0,0.9,0.1,2.2,0.3c2-1,4.3-1.6,6.7-1.6c2.9,0,5.7,0.9,8,2.3
	c7.9-0.2,10.7-1.8,12.3-3.3c1.5-1.4,2.3-3.3,2.2-5.4c-0.3-5.5-0.9-10.1-1.8-13.8c-1.2-4.9-3-8.3-5.3-10.3c-1.4-1.2-2.8-1.7-3.8-1.8
	c-0.2,0-0.3-0.1-0.5-0.1l-22.3-1.8c-0.6,0-1.1,0-1.6,0.2l-1,0.1C200.1,200.6,201.4,209,201.7,214.4z"/>
<path class="st0" d="M195.6,293.9c3.7,0.5,7.1-1.4,8.1-4.2L204,266h-14l-0.2,23.7C190.5,291.8,192.7,293.6,195.6,293.9z"/>
<path class="st0" d="M198.7,248.1C198.7,248.1,198.7,248.1,198.7,248.1C198.7,248.1,198.7,248.1,198.7,248.1L198.7,248.1z"/>
<path class="st0" d="M221.9,248.1v-0.3c-0.1,0.1-0.2,0.2-0.2,0.3H221.9z"/>
<path class="st0" d="M219.8,227.1c1.1,0.9,2.1,2,2.9,3.3l0.3-3.6C222,226.9,221,227,219.8,227.1z"/>
<ellipse class="st0" cx="211.5" cy="174" rx="13" ry="13"/>
<path class="st0" d="M89.2,240.8c0.9,2,2.6,3.3,4.5,3.9c1.3,1.4,3.2,2.4,5.3,2.4h56.8h11h1.4c-0.9-1.2-1.4-2.7-1.2-4.2l2.8-27.1h-4
	h-10H129c-1,0-2,0.2-2.9,0.6l-33.3,15.1C89.1,233,87.5,237.2,89.2,240.8z M151.3,229.9v2.8h-27l6.2-2.8H151.3z"/>
<path class="st0" d="M168.2,242.9c-0.3,2.5,1.6,4.8,4.1,5.1c0.2,0,0.3,0,0.5,0h21.1c1.9-0.4,3.1-0.9,3.8-1.4
	c-1.5-2.3-2.4-5.1-2.4-8.2c0-4.3,1.8-8.1,4.7-10.9v-1.8c-2.6-0.9-4.3-3.5-3.9-6.4c0.3-2.2,1.8-4.1,3.9-4.8
	c-0.5-8.2-3.2-24.1-14.4-45.2c-1.2-2.3-4-3.1-6.3-1.9c-2.3,1.2-3.1,4-1.9,6.3c0.8,1.5,1.6,3,2.3,4.5c1.1-1,2.5-1.6,4-1.6
	c1.3,0,2.5,0.4,3.5,1.1c1.3,0.9,2.1,2.3,2.3,3.9c0.2,1.6-0.1,3.1-1.1,4.4l-3.4,4.7c4.2,11.5,5.4,20.1,5.7,24.8h-9c0,0.2,0,0.5,0,0.7
	l-2.3,21.7c2.1,0.1,4,0.2,5.7,0.2c0.8,0,1.6,0,2.3,0l-0.2,1.3c-2.2,0.1-5.2,0-9.1-0.3l2.4-23c0.3-2.5-1.6-4.8-4.1-5.1
	c-2.5-0.3-4.8,1.6-5.1,4.1L168.2,242.9z"/>
<path class="st0" d="M210.2,252.1c-3.6,0-7-0.4-9.6-1.1H61.1c-1.3,0-2.3,0.3-2.3,0.7v11.6c0,0.4,1,0.7,2.3,0.7h178.5
	c1.3,0,2.3-0.3,2.3-0.7v-11.6c0-0.4-1-0.7-2.3-0.7h-19.9C217.2,251.7,213.8,252.1,210.2,252.1z"/>
<rect x="63.9" y="264" class="st0" width="8.5" height="29.7"/>
<rect x="228.5" y="264" class="st0" width="8.5" height="29.7"/>
<circle class="st0" cx="210.2" cy="238.5" r="13"/>
<path class="st0" d="M213.6,293.9c3.7,0.5,7.1-1.4,8.1-4.2L222,266h-14l-0.2,23.7C208.5,291.8,210.7,293.6,213.6,293.9z"/>
</svg>
