<?xml version="1.0" encoding="utf-8"?>
<!-- Generator: Adobe Illustrator 23.0.3, SVG Export Plug-In . SVG Version: 6.00 Build 0)  -->
<svg version="1.1" id="Layer_1" xmlns="http://www.w3.org/2000/svg" xmlns:xlink="http://www.w3.org/1999/xlink" x="0px" y="0px"
	 viewBox="0 0 250 300" style="enable-background:new 0 0 250 300;" xml:space="preserve">
<style type="text/css">
	.st0{opacity:0.85;fill:#314049;}
</style>
<ellipse transform="matrix(0.2266 -0.974 0.974 0.2266 -72.1591 250.8099)" class="st0" cx="121.8" cy="170.8" rx="13.3" ry="13.3"/>
<path class="st0" d="M104.4,199c-0.8-1.4-1-3.1-0.5-4.6c0.5-1.5,1.5-2.8,2.9-3.6c0.9-0.5,1.9-0.7,2.9-0.7c2.2,0,4.2,1.2,5.3,3.1
	c0,0.1,0.1,0.2,0.2,0.3c0.2,0.3,0.5,0.7,0.9,1.3c0.5,0.7,1.3,1.6,2.3,2.5c0.7-5.4-1.5-11-6-12.1c-5-1.3-12.3,1.5-15.3,10.1
	c-4,11.9-4.9,19.7-3.4,32.8c1.2,6.4,4.6,8.9,8.3,9.9c1.5,5,3.4,13.1,3.4,22.9c0,7.8-1.2,16.6-4.6,25.9c-1.4,3.8,0.5,8.1,4.4,9.5
	c0.8,0.3,1.7,0.5,2.6,0.5c3,0,5.8-1.8,6.9-4.8c4.1-11.1,5.5-21.7,5.5-31c0-14.8-3.5-26.2-5.4-31.3c-0.8-6.1-0.1-12.9,1-19.1
	c-1.1-0.7-2.1-1.4-2.9-2.1C107.6,204.2,105.1,200.2,104.4,199z"/>
<path class="st0" d="M149.9,205.4c-0.1,0-0.1,0-0.2,0c-3.6,0.7-6.9,1-9.8,1c-9.9,0-16.3-3.3-20.4-6.5c-2.1-1.6-3.5-3.2-4.4-4.4
	c-0.5-0.6-0.8-1.1-1-1.4c-0.1-0.1-0.2-0.3-0.2-0.3c0,0,0,0,0,0c0,0,0,0,0,0l0,0c-1.3-2.3-4.1-3.1-6.4-1.9c-2.3,1.2-3.1,4.1-1.9,6.4
	h0c0.2,0.4,2.6,4.7,8.1,9c5.4,4.3,14.1,8.5,26.2,8.5c0,0,0.1,0,0.1,0c3.6,0,7.5-0.4,11.6-1.2c1.8-0.4,3.2-1.7,3.6-3.3
	C153,209.7,151.2,207.7,149.9,205.4z"/>
<path class="st0" d="M234.7,242.5h-25.6c-1.1-3-3.5-5.7-8.7-7.2c-10.5-2.1-17.6-2.3-26.5-0.7v11.3c0,3.3-2.7,6-6,6c-3.3,0-6-2.7-6-6
	v-7.4c-4.7,3.2-6.4,8.1-5.7,12c0.8,5,7.3,7.7,13.2,6.8h58.2l0.8,32.2c0.1,4,3.4,7.2,7.4,7.2c0.1,0,0.1,0,0.2,0
	c4.1-0.1,7.3-3.5,7.2-7.6l-1-39.4C241.9,245.7,238.7,242.5,234.7,242.5z"/>
<ellipse transform="matrix(0.997 -7.799637e-02 7.799637e-02 0.997 -18.6864 11.6702)" class="st0" cx="140.1" cy="245.1" rx="13.3" ry="13.3"/>
<rect x="126.5" y="262.1" class="st0" width="95.9" height="7.7"/>
<path class="st0" d="M163.2,245.9c0,2.6,2.1,4.7,4.7,4.7c2.6,0,4.7-2.1,4.7-4.7v-30.8c-1.5,0.4-3.1,0.5-4.7,0.5
	c-1.6,0-3.2-0.2-4.7-0.5C163.2,215.1,163.2,245.9,163.2,245.9z"/>
<path class="st0" d="M167.9,213.4c10.3,0,18.7-8.4,18.7-18.7s-8.4-18.7-18.7-18.7c-10.3,0-18.7,8.4-18.7,18.7
	C149.1,205.1,157.5,213.4,167.9,213.4z M160.5,194.7c0-4.1,3.3-7.4,7.4-7.4c4.1,0,7.4,3.3,7.4,7.4s-3.3,7.4-7.4,7.4
	C163.8,202.1,160.5,198.8,160.5,194.7z"/>
<circle class="st0" cx="167.9" cy="194.7" r="5.6"/>
</svg>
