<?xml version="1.0" encoding="utf-8"?>
<!-- Generator: Adobe Illustrator 23.0.3, SVG Export Plug-In . SVG Version: 6.00 Build 0)  -->
<svg version="1.1" id="doc" xmlns="http://www.w3.org/2000/svg" xmlns:xlink="http://www.w3.org/1999/xlink" x="0px" y="0px"
	 viewBox="0 0 250 300" style="enable-background:new 0 0 250 300;" xml:space="preserve">
<style type="text/css">
	.st0{fill:#314049;}
</style>
<path class="st0" d="M155.8,163.2L96,251.5h94.4v-2.3h-90.1l18.4-27.2H129v-2.1h-8.9l11.1-16.4h20.6v-2.1h-19.2l13.4-19.9h19.4
	l13.4,19.9h-2.4v2.1h3.6c0.3-1,0.6-2,1-3L155.8,163.2z M155.8,167.2l8.3,12.2h-16.5L155.8,167.2z"/>
<path class="st0" d="M152.5,188.7c1.1-1.1,1.1-2.8,0-3.9c-1.1-1.1-2.8-1.1-3.9,0c-0.7,0.7-0.9,1.5-0.8,2.4c-0.8-0.1-1.7,0.1-2.4,0.8
	c-1.1,1.1-1.1,2.8,0,3.9c1.1,1.1,2.8,1.1,3.9,0c0,0,0,0,0-0.1l5.3,5.3c0.3-0.8,0.7-1.5,1.3-2.1c0.5-0.5,1-0.8,1.6-1.1L152.5,188.7
	C152.4,188.7,152.4,188.7,152.5,188.7z"/>
<path class="st0" d="M169.8,209.2c3.2-3.2,4.1-7.5,0.5-11.1c-3.6-3.6-10.4-5.2-13.6-2c-3.2,3.2-1.6,10,2,13.6
	C162.4,213.3,166.6,212.4,169.8,209.2z M162.8,198.5c0,0.7-0.6,1.3-1.3,1.3s-1.3-0.6-1.3-1.3s0.6-1.3,1.3-1.3
	S162.8,197.7,162.8,198.5z M167.1,199.3c0,0.7-0.6,1.3-1.3,1.3c-0.7,0-1.3-0.6-1.3-1.3c0-0.7,0.6-1.3,1.3-1.3
	S167.1,198.6,167.1,199.3z M170.1,203.4c0,0.7-0.6,1.3-1.3,1.3c-0.7,0-1.3-0.6-1.3-1.3s0.6-1.3,1.3-1.3
	C169.5,202.1,170.1,202.7,170.1,203.4z"/>
<path class="st0" d="M131.3,229.5c0,0-3.3,1.4-4.8,3.4c-0.5-0.6-1.1-1.1-1.8-1.4c-2.8-1.3-6.3,0.5-7.8,4c-1.5,3.5-0.4,7.3,2.4,8.6
	c0.6,0.3,1.3,0.4,1.9,0.4c0.4,0.6,0.8,1,1.4,1.4c2.6,1.7,6.4,0.5,8.4-2.7c2.1-3.2,1.6-7.1-1-8.8c-0.8-0.6-1.8-0.8-2.8-0.7
	c0.8-0.9,2.5-2.6,5.4-2.7C132.5,230.4,131.3,229.5,131.3,229.5z"/>
<path class="st0" d="M126.5,231.8c0,0,1-4-1-5.2c-2-1.2-2.5-2.8-2.5-2.8s-2.7,3.2-0.2,5.4C125.3,231.2,125.8,230.2,126.5,231.8z"/>
<path class="st0" d="M148.6,212.6c-1.6-4.7-6.6-7.2-11.3-5.6c-4.7,1.6-7.2,6.6-5.6,11.3c1.6,4.7,6.6,7.2,11.3,5.6
	C147.6,222.3,150.1,217.3,148.6,212.6z M137,211c0.4-0.1,0.8,0.1,0.9,0.5c0.1,0.4-0.1,0.8-0.5,0.9c-0.4,0.1-0.8-0.1-0.9-0.5
	C136.5,211.5,136.7,211.1,137,211z M135.3,211.8c-0.4,0.1-0.8-0.1-0.9-0.5c-0.1-0.4,0.1-0.8,0.5-0.9c0.4-0.1,0.8,0.1,0.9,0.5
	C135.9,211.3,135.7,211.7,135.3,211.8z M138.3,210c-0.9,0.3-1.7,0.1-1.9-0.5c-0.2-0.5,0.4-1.2,1.2-1.5c0.9-0.3,1.7-0.1,1.9,0.5
	C139.7,209.1,139.2,209.8,138.3,210z"/>
<path class="st0" d="M135.9,232.2c-0.9,3,0.7,6.1,3.6,7.1l20.3,6.5c3,0.9,6.1-0.7,7.1-3.6c0.9-3-0.7-6.1-3.6-7.1l-1.9-0.6l-3.4,4.7
	l0.2-5.8l-3.4-1.1l-2.7,3.8l0.1-4.6l-4.5-1.4l-2.7,3.8l0.1-4.6l-2.2-0.7C140,227.6,136.8,229.2,135.9,232.2z"/>
<path class="st0" d="M165.9,227.2c0.7,2.3,2.7,7.6,6.3,11.5c4.7,5,8,8.5,8.5,9.1c0.5,0.6,1.5,1.1,2.3,0.3c0.6-0.6,1.3-1.2,1.9-1.7
	c-0.6-0.1-1.2-0.2-1.7-0.4l-1.1,1l0,0c-0.1,0-0.2-0.1-0.2-0.2l-8.5-9.1c-1.7-1.8-3.1-4.1-4.1-6.1l5.2-4.8c1,0.6,2.1,1.2,3.1,2
	c0-0.3,0-0.6,0-0.9c0-0.3,0-0.6,0-0.9c-2.8-1.9-5.6-3.2-7.2-3.8l-4.1-4.4l0.2-0.2c0.4-0.4,0.4-1.1,0-1.5c-0.4-0.4-1.1-0.4-1.5,0
	l-4.9,4.6c-0.4,0.4-0.4,1.1-0.1,1.5c0.4,0.4,1.1,0.4,1.5,0l0.2-0.2L165.9,227.2z"/>
<rect x="149.6" y="219.9" class="st0" width="7.5" height="2.1"/>
<path class="st0" d="M177.5,222c0-0.7,0.1-1.4,0.1-2.1h-5.3v2.1H177.5z"/>
<path class="st0" d="M210.4,236.2v51c0,0.9,0.2,1.7,0.5,2.5c1,2.6,3.5,4.5,6.5,4.5c3.9,0,7-3.1,7-7V232l1.1-0.5v11.7
	c8.5-2,19.8-13.9,17.1-29c-3.7-20.1-13.7-26.9-17.2-28c-0.5-0.2-1.3-0.3-2.1-0.3c-3.3,0-8.5,0.9-11.5,1.6h8.3c0.3,0,0.6,0,0.9,0.1
	l0,0c1.7,0.2,3.5,0.9,5.1,2c1.6,1.1,3.1,2.5,4.4,4.3c2.7,3.7,4.1,8.3,4.1,13c0,4.1-1.1,8.2-3.3,11.9c-0.9,1.5-1.9,2.9-3,4.2l2,4.6
	l-17.5,7.4l-9.4-22.4l17.5-7.4l2,4.8c0.3-1.1,0.5-2.2,0.5-3.3c0-1.7-0.4-3.3-1.1-4.8c-0.7-1.4-1.6-2.4-2.2-2.9l0.1-1.3
	c0.2,0.1,0.4,0.2,0.6,0.4c0.8,0.6,1.8,1.8,2.5,3.3c0.7,1.5,1.2,3.4,1.2,5.3c0,2.1-0.5,4.4-1.9,6.8c-1.4,2.4-3.8,5-7.6,7.6
	c-2.1,1.4-2.6,4.2-1.2,6.3c0.9,1.3,2.3,2,3.8,2c0.9,0,1.7-0.2,2.5-0.8c4.8-3.2,8.2-6.8,10.4-10.6c2.2-3.8,3.2-7.7,3.2-11.4
	c0-4.9-1.6-9.1-3.9-12.3c-1.2-1.6-2.5-3-4.1-4c-1.3-0.9-2.8-1.6-4.6-1.8v0c-0.3,0-0.5-0.1-0.8-0.1h-3.4c0,0.1,0,0.3,0,0.5
	c0,2,0.2,8,2.8,15l-3.1,1.3c-2.8-7.5-3-14.1-3.1-16.3c0-0.2,0-0.3,0-0.5h-15c-0.1,0-0.1,0-0.2,0c-1,0-2.7,0.2-4.6,1.2
	c-3,1.5-6.3,4.8-8.6,10.7c-2.3,5.9-3.9,14.4-3.9,27.2c0,3.3,0.1,6.9,0.3,10.8c0.1,2.4,2.1,4.3,4.5,4.3c0.1,0,0.2,0,0.3,0
	c2.5-0.1,4.4-2.3,4.3-4.8c-0.2-3.8-0.3-7.2-0.3-10.3c0-13.7,2-21.4,3.9-25.4v84.8c0,3.9,3.1,7,7,7c3.9,0,7-3.1,7-7v-51H210.4
	L210.4,236.2z"/>
<circle class="st0" cx="209.1" cy="172.8" r="12.7"/>
<rect x="207.3" y="212.6" transform="matrix(0.9219 -0.3874 0.3874 0.9219 -65.923 99.4411)" class="st0" width="12.9" height="1.3"/>
<rect x="208.3" y="215" transform="matrix(0.9219 -0.3874 0.3874 0.9219 -66.7825 100.0258)" class="st0" width="12.9" height="1.3"/>
</svg>
